<svg version="1.2" xmlns="http://www.w3.org/2000/svg" viewBox="0 0 885 234" width="885" height="234">
	<title>logo-svg</title>
	<defs>
		<filter x="-50%" y="-50%" width="200%" height="200%" id="f1" ><feDropShadow dx="0" dy="0" stdDeviation="4.166666666666667" flood-color="#000000" flood-opacity=".6"/></filter>
		<linearGradient id="g1" x2="1" gradientUnits="userSpaceOnUse" gradientTransform="matrix(0,-208,139.6,0,703.4,218.6)">
			<stop offset="0" stop-color="#831e2f"/>
			<stop offset="1" stop-color="#c3112f"/>
		</linearGradient>
		<filter x="-50%" y="-50%" width="200%" height="200%" id="f2" ><feDropShadow dx="0" dy="0" stdDeviation="4.166666666666667" flood-color="#000000" flood-opacity=".6"/></filter>
		<linearGradient id="g2" x2="1" gradientUnits="userSpaceOnUse" gradientTransform="matrix(0,-103,131,0,703.5,164)">
			<stop offset="0" stop-color="#831e2f"/>
			<stop offset="1" stop-color="#c3112f"/>
		</linearGradient>
		<filter x="-50%" y="-50%" width="200%" height="200%" id="f3" ><feDropShadow dx="0" dy="0" stdDeviation="4.166666666666667" flood-color="#000000" flood-opacity=".6"/></filter>
		<linearGradient id="g3" x2="1" gradientUnits="userSpaceOnUse" gradientTransform="matrix(0,-51,73,0,736.5,220)">
			<stop offset="0" stop-color="#831e2f"/>
			<stop offset="1" stop-color="#c3112f"/>
		</linearGradient>
		<filter x="-50%" y="-50%" width="200%" height="200%" id="f4" ><feDropShadow dx="0" dy="0" stdDeviation="4.166666666666667" flood-color="#000000" flood-opacity=".6"/></filter>
		<linearGradient id="g4" x2="1" gradientUnits="userSpaceOnUse" gradientTransform="matrix(0,-51,73,0,668.5,220)">
			<stop offset="0" stop-color="#831e2f"/>
			<stop offset="1" stop-color="#c3112f"/>
		</linearGradient>
		<filter x="-50%" y="-50%" width="200%" height="200%" id="f5" ><feDropShadow dx="0" dy="0" stdDeviation="9.583333333333334" flood-color="#000000" flood-opacity=".8"/></filter>
		<linearGradient id="g5" x2="1" gradientUnits="userSpaceOnUse" gradientTransform="matrix(0,-30,30,0,703,40)">
			<stop offset="0" stop-color="#831e2f"/>
			<stop offset="1" stop-color="#c3112f"/>
		</linearGradient>
	</defs>
	<style>
		.s0 { fill: #231f20 } 
		.s1 { fill: #000000 } 
		.s2 { filter: url(#f1);fill: url(#g1) } 
		.s3 { filter: url(#f2);fill: url(#g2) } 
		.s4 { filter: url(#f3);fill: url(#g3) } 
		.s5 { filter: url(#f4);fill: url(#g4) } 
		.s6 { filter: url(#f5);fill: #ffffff } 
		.s7 { fill: url(#g5) } 
	</style>
	<g id="Layer 1">
		<g id="&lt;Group&gt;">
			<g id="&lt;Group&gt;">
				<path id="&lt;Compound Path&gt;" fill-rule="evenodd" class="s0" d="m829.1 207.7l2.2 3.5h-3.6l-1.6-2.9q-1.8-3.3-3-4.2c-0.5-0.4-1.3-0.6-2.3-0.6h-1.7v7.7h-3v-18.1h6.2c2.2 0 3.7 0.2 4.7 0.5q1 0.4 1.8 1.2c0.1 0.2 0.3 0.4 0.4 0.6 0.6 0.8 0.8 1.7 0.8 2.6q0 2-1.4 3.5c-0.9 0.9-2.2 1.5-3.7 1.6 0.6 0.3 1.1 0.6 1.5 1 0.8 0.7 1.6 1.9 2.7 3.6zm-3.1-7.4q1-0.8 1-2.1 0-0.7-0.5-1.3-0.4-0.7-1.2-1-0.8-0.3-2.9-0.3h-3.3v5.4h3.5c1.7 0 2.8-0.2 3.4-0.7z"/>
				<path id="&lt;Compound Path&gt;" fill-rule="evenodd" class="s0" d="m831.8 216.4c-2.6 1.5-5.4 2.2-8.3 2.2q-4.4 0.1-8.4-2.2-0.8-0.4-1.6-1c-1.9-1.3-3.4-3.1-4.5-5.2-1.5-2.6-2.3-5.4-2.3-8.3 0-2.4 0.6-4.8 1.6-7.1q0.3-0.6 0.7-1.3c1.5-2.7 3.6-4.8 6.3-6.2q4-2.2 8.2-2.2c2.8 0 5.6 0.8 8.3 2.2 2.6 1.4 4.7 3.5 6.2 6.2 0.3 0.5 0.5 0.9 0.7 1.3q1.5 3.5 1.5 7.1 0 4.4-2.2 8.3c-1.1 2.1-2.6 3.9-4.5 5.2-0.6 0.4-1.1 0.7-1.7 1zm-1.3-2.4c2.2-1.2 3.9-2.9 5.1-5.2 1.3-2.2 1.9-4.5 1.9-6.9 0-2.4-0.7-4.8-1.9-7l-0.1-0.1q-1.8-3.3-5.1-5.1-3.4-1.8-6.9-1.8-3.5 0-6.9 1.8-3.3 1.8-5.2 5.1c0 0 0 0 0 0.1-1.3 2.2-1.9 4.6-1.9 7 0 2.4 0.6 4.7 1.9 6.9 1.2 2.3 2.9 4 5.2 5.2 1 0.6 2.1 1.1 3.2 1.4q1.8 0.5 3.7 0.5 1.9 0 3.7-0.5 1.6-0.5 3.3-1.4z"/>
				<path id="IPTVman" fill-rule="evenodd" class="s1" d="m43.5 112.7h32.9v10.5h-10.3v84.2h10.3v10.6h-32.9v-10.6h10.3v-84.2h-10.3zm76.5 65.6h-13.8v39.8h-12.4v-105.4h29q16.9 0 26.1 8.3 9.3 8.2 9.3 23.2 0 15-10.3 24.5-10.3 9.6-27.9 9.6zm0.6-54.4h-14.4v43.2h12.9q12.8 0 19.5-5.8 6.7-5.9 6.7-16.5 0-20.9-24.7-20.9zm119.8-11.2v11.2h-30.4v94.2h-12.4v-94.2h-30.3v-11.2zm84.7 0h13.3l-39 105.4h-13.6l-38.2-105.4h13.7l29.2 83.6q1.4 4 2.1 9.3h0.3q0.6-4.4 2.4-9.5zm127.8 105.4h-6.8v-45.3q0-14.2-4.5-19.9-4.4-5.7-14-5.7-8.9 0-15.3 7.6-6.5 7.6-6.5 19.2v44.1h-6.8v-45.8q0-25.1-19.1-25.1-9.1 0-15.2 7.7-6.1 7.6-6.1 19.8v43.4h-6.8v-75.3h6.8v12.5h0.3q7.8-14.3 22.9-14.3 8.3 0 14.1 4.8 5.9 4.7 7.9 12.4 3.5-8.2 10.1-12.6 6.6-4.6 14.3-4.6 24.7 0 24.7 30.6zm74.3 0h-6.8v-15.1h-0.3q-3.6 7.7-10.5 12.3-6.8 4.6-15.2 4.6-10.7 0-17-6-6.2-6.1-6.2-15.2 0-19.7 26.1-23.8l23.1-3.5q0-24.2-18.2-24.2-12.4 0-24.2 10v-8.2q4.2-3.3 11.3-5.7 7.2-2.3 13.5-2.3 11.7 0 18 7.2 6.4 7.2 6.4 20.9zm-6.8-40.4l-20.7 3q-11.8 1.7-16.6 5.5-4.8 3.7-4.8 12.2 0 6.7 4.4 11.1 4.5 4.3 12.4 4.3 10.9 0 18.1-8 7.2-8.1 7.2-20.8zm87.3 40.5h-6.8v-43.8q0-27.1-19.5-27.1-10.9 0-17.9 8-7 7.9-7 19.7v43.2h-6.7v-75.2h6.7v13.6h0.3q8.3-15.5 25.8-15.5 12.1 0 18.6 8.2 6.5 8 6.5 23.1z"/>
			</g>
			<g id="&lt;Group&gt;">
				<path id="&lt;Compound Path&gt;" fill-rule="evenodd" class="s2" d="m773.2 194.1c0 13.7-16.3 24.5-37 24.5-14.4 0-26.6-5.1-32.8-12.9-6.2 7.8-18.4 12.9-32.8 12.9-20.7 0-37-10.8-37-24.5 0-10.4 9.3-19.3 23.5-22.9v-23.2c-12.2-9.6-19.1-22.7-19.1-36.3 0-27.2 27-49.6 61.1-51.3v-21.1c-6-1.9-10.3-7.5-10.3-14 0-8.1 6.5-14.7 14.6-14.7 8.1 0 14.6 6.6 14.6 14.7 0 6.5-4.3 12.1-10.3 14v21.1c34.1 1.7 61.2 24.1 61.2 51.3 0 13.6-7 26.7-19.2 36.3v23.2c14.2 3.6 23.5 12.5 23.5 22.9zm-67.3-31.1q-1.2 0.1-2.5 0.1-1.2 0-2.5-0.1v16.8q1.4 1.3 2.5 2.7 1.1-1.4 2.5-2.7z"/>
				<path id="Shape 1" class="s3" d="m703.5 164c-36.2 0-65.5-23-65.5-51.5 0-28.5 29.3-51.5 65.5-51.5 36.2 0 65.5 23 65.5 51.5 0 28.5-29.3 51.5-65.5 51.5z"/>
				<path id="Shape 1 copy" class="s4" d="m736.5 220c-20.2 0-36.5-11.4-36.5-25.5 0-14.1 16.3-25.5 36.5-25.5 20.2 0 36.5 11.4 36.5 25.5 0 14.1-16.3 25.5-36.5 25.5z"/>
				<path id="Shape 1 copy 2" class="s5" d="m668.5 220c-20.2 0-36.5-11.4-36.5-25.5 0-14.1 16.3-25.5 36.5-25.5 20.2 0 36.5 11.4 36.5 25.5 0 14.1-16.3 25.5-36.5 25.5z"/>
				<path id="&lt;Path&gt;" class="s6" d="m691.8 126.4c-2.8 0-5.1-6.5-5.1-14.6 0-8 2.3-14.5 5.1-14.5 2.9 0 5.1 6.5 5.1 14.5 0 8.1-2.2 14.6-5.1 14.6zm23.2 0c-2.9 0-5.1-6.5-5.1-14.6 0-8 2.2-14.5 5.1-14.5 2.8 0 5.1 6.5 5.1 14.5 0 8.1-2.3 14.6-5.1 14.6z"/>
				<path id="Shape 2" class="s7" d="m703 40c-8.3 0-15-6.7-15-15 0-8.3 6.7-15 15-15 8.3 0 15 6.7 15 15 0 8.3-6.7 15-15 15z"/>
			</g>
		</g>
	</g>
</svg>